<svg xmlns="http://www.w3.org/2000/svg" viewBox="0 0 20 20" shape-rendering="crispEdges" role="img" aria-labelledby="title desc">
  <title id="title">vcm logo</title>
  <desc id="desc">Two pixel account cards, with the front card selected</desc>
  <path d="M3 0h14v1h2v2h1v14h-1v2h-2v1H3v-1H1v-2H0V3h1V1h2Z" fill="#345062"/>
  <path d="M3 1h14v1h2v15h-2v2H3v-2H1V3h2Z" fill="#111c2b"/>
  <path d="M7 4h9v1H7zm0 1h1v8H7zm8 0h1v8h-1zm-7 7h7v1H8z" fill="#71899a"/>
  <rect x="9" y="7" width="2" height="2" fill="#71899a"/>
  <rect x="4" y="8" width="8" height="7" fill="#1b3940"/>
  <path d="M3 7h10v1H3zm0 1h1v8H3zm9 0h1v8h-1zm-8 7h8v1H4z" fill="#62dfc6"/>
  <rect x="5" y="10" width="2" height="2" fill="#a3f4df"/>
  <rect x="4" y="13" width="4" height="1" fill="#a3f4df"/>
  <path d="M9 10h1v1H9zm1 1h1v1h-1zm-1 1h1v1H9z" fill="#a3f4df"/>
</svg>
